# xmcd
#
# Track frame offsets:
#	150
#	18112
#	43432
#	65330
#	82210
#	98280
#	119867
#	140370
#	161170
#	185125
#	204155
#	221497
#	238675
#	260032
#	283690
#	304542
#
# Disc length: 4326
#
# Revision: 1
# Processed by: cddbd v1.5.1PL0 Copyright (c) Steve Scherf et al.
# Submitted via: dBpowerAMP V4.0
# Normalized: r0:TDELIM( - )
#
DISCID=ee10e410
DTITLE=Various Artist - Ride
DYEAR=1998
DGENRE=Hip-Hop
TTITLE0=Dave Hollister feat. Redman and Erick Sermon - The Weekend
TTITLE1=Wu-Tang Clan and Onyx - The Worst
TTITLE2=Norega feat. Nas and Nature - Blood Money (Part 2)
TTITLE3=Rufus Blaq - Outta Sight
TTITLE4=Mia X feat. Fiend and Mac - Solider Funk
TTITLE5=Mack10, Big Mike and DJ U-Neek feat. EWF - The Game
TTITLE6=Black Caesar - The Symptoms
TTITLE7=Eastsiders feat. Snoop Doggy Dogg - Feels So Good
TTITLE8=Naughty by Nature - Mourn You Til I Join you
TTITLE9=Cardan feat. Jermaine Dupri - Jam on It
TTITLE10=Sexions - Higher
TTITLE11=Amari - Callin'
TTITLE12=Eric Benet and The Roots - Why
TTITLE13=Somethin' For the People feat. Trina and Tamara - No One
TTITLE14=Raphael Saadiq introducing Willie Max - Can't Get Enough
TTITLE15=Adriana Evans feat. Phife - Never Say Goodbye
EXTD=
EXTT0=
EXTT1=
EXTT2=
EXTT3=
EXTT4=
EXTT5=
EXTT6=
EXTT7=
EXTT8=
EXTT9=
EXTT10=
EXTT11=
EXTT12=
EXTT13=
EXTT14=
EXTT15=
PLAYORDER=
